<svg xmlns="http://www.w3.org/2000/svg" viewBox="0 0 512 512" x="0px" y="0px"><title>Avatar icon</title><desc>Avatar icon for website, application, printing, document, poster design, etc.</desc><metadata><?xpacket begin="&#65279;" id="W5M0MpCehiHzreSzNTczkc9d"?><x:xmpmeta xmlns:x="adobe:ns:meta/" x:xmptk="Adobe XMP Core 5.6-c145 79.162955, 2018/05/10-01:07:16        "/><?xpacket end="w"?></metadata><g><rect x="408" y="408" width="16" height="88"/><path d="M381.726,319.186l-49.527-14.3-20.2-20.2V267.648c.043-.076.091-.146.133-.222l15.544-27.977A55.865,55.865,0,0,0,364.8,217.6l9.6-12.8A8,8,0,0,0,368,192a7.959,7.959,0,0,1-7.8-6.221,35.969,35.969,0,0,0-.2-59.7V88a48.062,48.062,0,0,0-42.506-47.676A43.037,43.037,0,0,0,278.7,16H233.3c-15.969,0-30.7,9.4-38.065,22.654-5.566,10.013-3.379,28.2-3.35,28.886l-23.2,13.918a32.014,32.014,0,0,1,18.516-22.8L180.8,44A48.02,48.02,0,0,0,152,88v38.083a35.969,35.969,0,0,0-.206,59.695A8.01,8.01,0,0,1,144,192a8,8,0,0,0-6.4,12.8l9.6,12.8a55.864,55.864,0,0,0,37.119,21.846l15.543,27.974c.043.077.092.148.135.224v17.04l-20.2,20.2-49.526,14.3A55.919,55.919,0,0,0,88,373.48V496h16V373.48a40.064,40.064,0,0,1,2.092-12.787l31.4,43.957,13.02-9.3-35.4-49.553A39.92,39.92,0,0,1,134.3,334.671c.094-.023.187-.048.28-.075l28.686-8.282L153.6,339.2a8,8,0,0,0,1.6,11.2l25.946,19.459-11.8,17.7a8,8,0,0,0-.772,7.409L200,473.541V496h16V456h16V440H216V392h16V376H216V364l18.88-14.16L248,408.878V496h16V408.878l13.12-59.038L296,364V496h16V473.541l31.428-78.57a8,8,0,0,0-.772-7.409l-11.8-17.7L356.8,350.4a8,8,0,0,0,1.6-11.2l-9.665-12.886,28.686,8.282c.093.027.186.052.28.075A39.92,39.92,0,0,1,396.886,345.8l-35.4,49.553,13.02,9.3,31.4-43.957A40.064,40.064,0,0,1,408,373.48V392h16V373.48A55.916,55.916,0,0,0,381.726,319.186ZM264.19,334.265,256,371.122l-8.167-36.752-.023-.105a14.5,14.5,0,0,0-1.154-2.7L216,285.578v-2.313A39.943,39.943,0,0,0,234.83,288h42.34A39.94,39.94,0,0,0,296,283.265v2.313l-30.656,45.984A14.5,14.5,0,0,0,264.19,334.265ZM344,175.6V136.4a20,20,0,0,1,0,39.2Zm7.033,25.388a24.159,24.159,0,0,0,3.872,3.14L352,208a40.03,40.03,0,0,1-13.321,11.374A56.16,56.16,0,0,0,344,195.56v-3.788q.621-.067,1.235-.157A24.01,24.01,0,0,0,351.033,200.986Zm-9.743-80.953L329.1,91.592,344,100.53v19.7C343.106,120.128,342.2,120.065,341.29,120.033Zm2.037-38.566-21.716-13.03a67.008,67.008,0,0,0-.026-10.969A32.113,32.113,0,0,1,343.327,81.467ZM278.7,32a27.065,27.065,0,0,1,25.62,18.269c1.315,5.323,3.45,21.2-2.722,29.431a11.005,11.005,0,0,1-2.524,2.326c1.768-9.425.075-20.024-6.4-27.371-5.8-6.572-14.514-9.94-23.185-9.94a29.572,29.572,0,0,0-29.125,24.97l-8.1-1.157a51.94,51.94,0,0,1,5.114-17.389C243.915,38.439,255.563,32,272,32Zm-47.4.086a53.115,53.115,0,0,0-8.455,12.336,68.154,68.154,0,0,0-6.423,21.843L208,65.062c-.276-.04-.212-9.656-.16-10.68.2-4.01.979-7.842,3.282-11.2C215.536,36.736,223.631,32.7,231.3,32.086ZM168,100.53l14.9-8.941-12.19,28.444c-.913.032-1.817.095-2.711.195Zm0,35.872v39.2a20,20,0,0,1,0-39.2ZM160,208l-2.916-3.888a24.111,24.111,0,0,0,9.675-12.5c.412.061.825.112,1.241.158v3.788a56.163,56.163,0,0,0,5.319,23.811A40.035,40.035,0,0,1,160,208Zm29.034,6.986A40.108,40.108,0,0,1,184,195.56V129.642l20.938-48.856,49.931,7.134c1.474.21,18.268-2.25,18.262-2.286L270.869,69.8l-14.652,2.093a13.543,13.543,0,0,1,13.27-11.173c15.7,0,19.459,25.074,3.79,28.994-8.8,2.2-7.269,15.763,1.931,15.763.264,0,23.125-.139,36.7-13.382L328,129.642V195.56a40.1,40.1,0,0,1-5.033,19.424l-24.821,44.673A24,24,0,0,1,277.17,272H234.83a24,24,0,0,1-20.977-12.346ZM171.2,342.4,200,307.313v60.6a7.99,7.99,0,0,0-3.2-6.311Zm27.456,30.038A7.968,7.968,0,0,0,200,368.1v62.358l-15.009-37.523ZM216,344V314.422l13.146,19.719Zm66.854-9.859L296,314.422V344ZM312,430.459V368.1a7.968,7.968,0,0,0,1.344,4.337l13.665,20.5Zm3.2-68.859a7.99,7.99,0,0,0-3.2,6.311v-60.6L340.8,342.4Z"/><path d="M228,154a14,14,0,1,0-14,14A14.015,14.015,0,0,0,228,154Z"/><path d="M298,168a14,14,0,1,0-14-14A14.015,14.015,0,0,0,298,168Z"/><path d="M290.53,217.417l-5.052-15.181c-.225.075-22.788,7.437-44.743,5.41l-1.47,15.932c3.18.294,6.35.422,9.467.422A146.9,146.9,0,0,0,290.53,217.417Z"/><rect x="248" y="160" width="16" height="32"/><rect x="136" y="416" width="16" height="80"/><polygon points="360 464 328 464 328 480 360 480 360 496 376 496 376 416 360 416 360 464"/><rect x="168" y="480" width="16" height="16"/></g></svg>
