<svg xmlns="http://www.w3.org/2000/svg" viewBox="0 0 512 512" x="0px" y="0px"><title>Avatar icon</title><desc>Avatar icon for website, application, printing, document, poster design, etc.</desc><metadata><?xpacket begin="&#65279;" id="W5M0MpCehiHzreSzNTczkc9d"?><x:xmpmeta xmlns:x="adobe:ns:meta/" x:xmptk="Adobe XMP Core 5.6-c145 79.162955, 2018/05/10-01:07:16        "/><?xpacket end="w"?></metadata><g><path d="M389.406,318.688,321.26,303.93A14.346,14.346,0,0,1,312,290.56V276.447a48.022,48.022,0,0,0,15.331-24.806l10.607-42.413a201.4,201.4,0,0,0,4.542-24.434c.365-2.971.642-5.962.875-8.956a35.994,35.994,0,0,0,.645-71.61V104A88,88,0,0,0,189.5,46.363l12.086,10.485A72,72,0,0,1,328,104s-.471,71.275-1.4,78.845a185.723,185.723,0,0,1-4.181,22.494L312,247V208a32.036,32.036,0,0,0-32-32H256V136H240v40h-8a32.036,32.036,0,0,0-32,32v39l-10.419-41.661A186.865,186.865,0,0,1,184,160V104a71.927,71.927,0,0,1,9.858-36.387l-13.8-8.1A87.937,87.937,0,0,0,168,104v.228a35.994,35.994,0,0,0,.643,71.61,202.511,202.511,0,0,0,5.417,33.383l10.608,42.418A48.032,48.032,0,0,0,200,276.447V290.56a14.344,14.344,0,0,1-9.259,13.369c-.645.242-68.15,14.759-68.15,14.759A64.346,64.346,0,0,0,72,381.27V496H88V464h48v32h16V408H136v23.237a310.665,310.665,0,0,1-16.572-34.209l-14.856,5.943c.531,1.328,10.541,26.17,23.008,45.029H88V381.27a47.76,47.76,0,0,1,7.828-26.128l34.515,34.515,11.314-11.314-34.989-34.989a47.6,47.6,0,0,1,19.277-9.021l60.17-12.889,2.483,9.93a69.476,69.476,0,0,0,134.8,0l2.483-9.932,60.167,12.89a47.588,47.588,0,0,1,19.279,9.023l-34.988,34.988,11.314,11.314,34.515-34.515A47.76,47.76,0,0,1,424,381.27V389h16v-7.73A64.345,64.345,0,0,0,389.406,318.688ZM360,140a20.035,20.035,0,0,1-16,19.6V120.4A20.035,20.035,0,0,1,360,140Zm-208,0a20.035,20.035,0,0,1,16-19.6v39.2A20.035,20.035,0,0,1,152,140Zm64,68a16.019,16.019,0,0,1,16-16h48a16.019,16.019,0,0,1,16,16v60.12A31.763,31.763,0,0,1,280.77,272H264V240H248v32H231.23A31.769,31.769,0,0,1,216,268.12Zm40,160a53.4,53.4,0,0,1-51.881-40.507l-2.759-11.035A30.433,30.433,0,0,0,216,290.56v-5.034A47.919,47.919,0,0,0,231.23,288h49.54A47.915,47.915,0,0,0,296,285.526v5.034a30.43,30.43,0,0,0,14.64,25.9l-2.759,11.036A53.4,53.4,0,0,1,256,368Z"/><path d="M424,448H384.42c12.467-18.859,22.477-43.7,23.008-45.029l-14.856-5.942A296.924,296.924,0,0,1,376,431.167V408H360v88h16V464h48v32h16V405H424Z"/><path d="M200,138a14,14,0,1,0,14-14A14.015,14.015,0,0,0,200,138Z"/><path d="M284,138a14,14,0,1,0,14-14A14.015,14.015,0,0,0,284,138Z"/><rect x="208" y="96" width="96" height="16"/><path d="M256,400c-42.074,0-56.285-26.5-56.87-27.628l-14.285,7.206C185.588,381.065,203.657,416,256,416s70.412-34.935,71.155-36.422l-14.285-7.206C312.285,373.5,298.074,400,256,400Z"/><rect x="232" y="208" width="48" height="16"/></g></svg>
