<svg xmlns="http://www.w3.org/2000/svg" viewBox="0 0 512 512" x="0px" y="0px"><title>Avatar icon</title><desc>Avatar icon for website, application, printing, document, poster design, etc.</desc><metadata><?xpacket begin="&#65279;" id="W5M0MpCehiHzreSzNTczkc9d"?><x:xmpmeta xmlns:x="adobe:ns:meta/" x:xmptk="Adobe XMP Core 5.6-c145 79.162955, 2018/05/10-01:07:16        "/><?xpacket end="w"?></metadata><g><rect x="440" y="416" width="16" height="80"/><circle cx="214" cy="162" r="14"/><circle cx="298" cy="162" r="14"/><rect x="200" y="112" width="112" height="16"/><rect x="240" y="256" width="40" height="16"/><rect x="152" y="480" width="16" height="16"/><path d="M120,449.715c-9.942-10.076-14.877-27.478-16.1-34.99l-15.8,2.539c.273,1.712,6.61,39.508,31.9,52.107V496h16V424H120Z"/><path d="M456,401.97a71.893,71.893,0,0,0-54.54-69.851l-32.879-8.22a75.437,75.437,0,0,0,20.553-29.158c11.786-28.787,8.525-63.778-8.115-87.072a69.253,69.253,0,0,1-10.974-23.87A35.9,35.9,0,0,0,368,141.407s-.082-41.87-.241-44C364.4,52.507,324.845,16,280,16H232c-26.98,0-54.244,13.7-70.4,35.193a88.623,88.623,0,0,0-5.824,8.8l11.63,6.735,11.74,11.739L172,88H161.8c.428-1.887.91-3.761,1.488-5.6l-15.264-4.8a87.663,87.663,0,0,0-3.6,17.612c-.284,2.878-.429,46.193-.429,46.193a35.9,35.9,0,0,0-3.492,40.011,85.3,85.3,0,0,1-9.463,21.014c-22.761,36.432-19.957,84.446,6.666,114.165a70.446,70.446,0,0,0,7.19,6.931l-34.36,8.59A71.9,71.9,0,0,0,56,401.97V496H72V401.97A55.892,55.892,0,0,1,80.683,372l25.66,25.659,11.314-11.314L91.125,359.81a55.914,55.914,0,0,1,23.3-12.169l46.643-11.661-30.27,25.946A8,8,0,0,0,131.2,374.4l22.954,17.215-14.592,9.729a8,8,0,0,0-2.422,10.772l46.86,78.1V496h16V347.451c14.116,15.138,33.936,23.879,56,23.879s41.884-8.741,56-23.879v17.124c0,2.175-9.5,7.527-11.306,8.653a74.4,74.4,0,0,1-13.209,6.526c-18.586,7-41.994,7.357-60.81.708l-5.365,15.074A115.681,115.681,0,0,0,257,401c20.632,0,39.339-5.528,55-16.094V496h16v-5.783l46.86-78.1a8,8,0,0,0-2.422-10.772l-14.592-9.729L380.8,374.4a8,8,0,0,0,.406-12.474l-30.27-25.946,46.644,11.662a55.9,55.9,0,0,1,23.3,12.168l-26.532,26.533,11.314,11.314L431.317,372A55.892,55.892,0,0,1,440,401.97ZM360,164a20.038,20.038,0,0,1-16,19.6V144.4A20.038,20.038,0,0,1,360,164Zm-8-33.936a35.693,35.693,0,0,0-8-1.836V106h8Zm-8.619-60.131A71.154,71.154,0,0,1,350.615,90H341.5l-7.793-10.392Zm-25.228-26.9a72.96,72.96,0,0,1,15.925,13.571l-10.07,10.069L318.4,59.2a7.983,7.983,0,0,0-3.616-2.685ZM286.175,32.281a71.185,71.185,0,0,1,17.258,3.672l-5.494,21.974-18.85,2.693ZM269.754,32l-7.768,31.064L256,63.919l-5.987-.855L242.246,32Zm-43.929.281,7.086,28.339L214.579,58,209.02,35.766A70.967,70.967,0,0,1,225.825,32.281ZM178.8,55.49A72.543,72.543,0,0,1,194.261,42.7l3.416,13.663A7.975,7.975,0,0,0,193.6,59.2l-4.751,6.334ZM160,104h8v24.228a35.693,35.693,0,0,0-8,1.836Zm8,40.4v39.2a20,20,0,0,1,0-39.2Zm16,314.716-29.216-48.692,17.654-11.769A8,8,0,0,0,172.8,385.6l-24.022-18.016L184,337.394ZM199.854,296.5c-1.977,17.473-20.674,18.464-34.3,21.87a61.04,61.04,0,0,1-15.928-12.443c-10.985-12.263-17.15-28.253-17.827-46.241a86.734,86.734,0,0,1,12.812-48.771,101.124,101.124,0,0,0,8.277-16.422,35.768,35.768,0,0,0,10.5,4.464c-6.792,14.013-17.089,38.624-15.7,56.661,2.173,28.249,21.06,50.927,21.863,51.879l12.238-10.306c-.164-.2-16.378-19.8-18.147-42.8-.732-9.508,3.269-22.8,8.019-34.64a177.955,177.955,0,0,0,15.07,43.609q3.243,6.483,6.484,12.967C196.456,282.8,200.713,288.907,199.854,296.5ZM256,355.33c-18.474,0-41.565-8.646-53.847-32.365a36.578,36.578,0,0,0,12-17.292A39.907,39.907,0,0,0,235.777,312h40.446a39.905,39.905,0,0,0,21.65-6.341,36.541,36.541,0,0,0,11.983,17.289C297.576,346.68,274.478,355.33,256,355.33ZM310.956,256.2l-13.267,26.533A23.868,23.868,0,0,1,276.223,296H235.777a23.868,23.868,0,0,1-21.466-13.268L201.044,256.2a161.761,161.761,0,0,1-13.213-37.421l10.825-7.217-14.54-21.809c-.069-1.917-.116-91.086-.116-91.086L203.558,72.59l51.31,7.33c.752.107,53.574-7.33,53.574-7.33L328,98.667v82.666L305.9,210.8A40,40,0,0,0,272,192H256V160H240v32a40.045,40.045,0,0,0-40,40,8,8,0,0,0,8,8h96a8,8,0,0,0,8-8,39.74,39.74,0,0,0-5.418-20.063L318.4,220.8l7.281-9.707A162.1,162.1,0,0,1,310.956,256.2ZM294.629,224H217.371A24.042,24.042,0,0,1,240,208h32A24.042,24.042,0,0,1,294.629,224Zm68.593,143.584L339.2,385.6a8,8,0,0,0,.362,13.056l17.654,11.769L328,459.117V337.394Zm-15.593-48.923c-10.772-2.693-26.115-3.216-32.5-13.532-8.529-13.781,3.9-29.306,10.138-41.775a177.883,177.883,0,0,0,15.073-43.623c4.75,11.832,8.75,25.126,8.016,34.656-1.769,23-17.983,42.6-18.137,42.787l12.228,10.318c.8-.952,19.69-23.63,21.863-51.879,1.387-18.037-8.91-42.648-15.7-56.661a35.763,35.763,0,0,0,8.329-3.2A85.314,85.314,0,0,0,368,216.971c13.356,18.7,15.958,48.183,6.326,71.71C370.313,298.489,362.448,311.4,347.629,318.661Z"/><path d="M392,449.715V424H376v72h16V469.371c25.289-12.6,31.625-50.395,31.9-52.107l-15.8-2.539C406.877,422.237,401.942,439.639,392,449.715Z"/></g></svg>
