<svg xmlns="http://www.w3.org/2000/svg" viewBox="0 0 512 512" x="0px" y="0px"><title>Avatar icon</title><desc>Avatar icon for website, application, printing, document, poster design, etc.</desc><metadata><?xpacket begin="&#65279;" id="W5M0MpCehiHzreSzNTczkc9d"?><x:xmpmeta xmlns:x="adobe:ns:meta/" x:xmptk="Adobe XMP Core 5.6-c145 79.162955, 2018/05/10-01:07:16        "/><?xpacket end="w"?></metadata><g><rect x="424" y="424" width="16" height="72"/><path d="M424.425,360.4a63.722,63.722,0,0,0-30.847-19.693l-68.553-19.592L312,301.578v-9.131a48.027,48.027,0,0,0,15.331-24.805l10.608-42.414A201.622,201.622,0,0,0,342.48,200.8c.365-2.972.642-5.962.876-8.957a35.994,35.994,0,0,0,.644-71.61V72a56.063,56.063,0,0,0-56-56H224a55.9,55.9,0,0,0-37.335,14.262l7.275,8.128L204.184,64H184.805a39.774,39.774,0,0,1,4.541-11.994L175.5,43.994A55.99,55.99,0,0,0,168,72v48.228a35.994,35.994,0,0,0,.643,71.61,202.661,202.661,0,0,0,5.416,33.384l10.609,42.417A48.023,48.023,0,0,0,200,292.446v9.132l-13.025,19.538-68.549,19.591A64.248,64.248,0,0,0,72,402.24V496H88V402.24a47.8,47.8,0,0,1,6.649-24.277l27.694,27.694,11.314-11.314-28.674-28.674a47.609,47.609,0,0,1,17.835-9.576l62.174-17.77L192.04,408.8c.641,6.418,9.037,9.441,13.617,4.861L236.5,382.81,248,417.3V496h16V417.3l11.5-34.488,30.847,30.847A8.076,8.076,0,0,0,319.96,408.8l7.048-70.473,62.179,17.771a47.764,47.764,0,0,1,17.86,9.545l-28.7,28.7,11.314,11.314,27.725-27.725A47.991,47.991,0,0,1,424,402.24V408h16v-5.76A64.016,64.016,0,0,0,424.425,360.4ZM264.411,365.47,256,390.7l-8.411-25.232L216,302.111v-.586A47.892,47.892,0,0,0,231.23,304h49.54A47.919,47.919,0,0,0,296,301.526v.585ZM360,156a20.037,20.037,0,0,1-16,19.6V136.4A20.037,20.037,0,0,1,360,156ZM328,80v31.185A55.979,55.979,0,0,1,312.578,80ZM310.13,64l9.706-16.177A39.839,39.839,0,0,1,327.2,64Zm-2.543-26.861L291.47,64H278.244l8-32H288A39.746,39.746,0,0,1,307.587,37.139ZM250.248,64l-8-32h27.506l-8,32ZM209.675,34.648A42.8,42.8,0,0,1,225.754,32l8,32h-12.34ZM199.421,80A55.978,55.978,0,0,1,184,111.181V80ZM152,156a20.037,20.037,0,0,1,16-19.6v39.2A20.037,20.037,0,0,1,152,156Zm37.581,65.338A186.836,186.836,0,0,1,184,176V132s6.214-4.758,7.606-6a71.963,71.963,0,0,0,23.941-46h80.906a71.933,71.933,0,0,0,23.911,45.979C321.786,127.242,328,132,328,132v44a188.254,188.254,0,0,1-1.4,22.845,185.9,185.9,0,0,1-4.181,22.494l-10.611,42.423A31.995,31.995,0,0,1,280.77,288H231.23a32,32,0,0,1-31.039-24.241Zm16.7,169.068-6.035-60.352,6.765-10.147,23.256,46.513Zm99.44,0L281.734,366.42l23.256-46.513,6.765,10.147Z"/><rect x="216" y="432" width="16" height="16"/><rect x="216" y="480" width="16" height="16"/><path d="M136,457.716c-9.943-10.076-14.877-27.478-16.1-34.991l-15.8,2.539c.273,1.712,6.609,39.508,31.9,52.107V496h16V416H136Z"/><path d="M376,457.716V416H360v80h16V477.371c25.29-12.6,31.626-50.395,31.9-52.107l-15.8-2.539C390.877,430.238,385.943,447.64,376,457.716Z"/><path d="M214,168a14,14,0,1,0-14-14A14.015,14.015,0,0,0,214,168Z"/><path d="M284,154a14,14,0,1,0,14-14A14.015,14.015,0,0,0,284,154Z"/><rect x="208" y="112" width="96" height="16"/><path d="M280,184H256V152H240v32h-8a24.027,24.027,0,0,0-24,24v16a8,8,0,0,0,8,8h80a8,8,0,0,0,8-8V208A24.027,24.027,0,0,0,280,184Zm8,32H224v-8a8.009,8.009,0,0,1,8-8h48a8.009,8.009,0,0,1,8,8Z"/><rect x="240" y="248" width="40" height="16"/></g></svg>
