<svg xmlns="http://www.w3.org/2000/svg" viewBox="0 0 512 512" x="0px" y="0px"><title>Avatar icon</title><desc>Avatar icon for website, application, printing, document, poster design, etc.</desc><metadata><?xpacket begin="&#65279;" id="W5M0MpCehiHzreSzNTczkc9d"?><x:xmpmeta xmlns:x="adobe:ns:meta/" x:xmptk="Adobe XMP Core 5.6-c145 79.162955, 2018/05/10-01:07:16        "/><?xpacket end="w"?></metadata><g><rect x="424" y="416" width="16" height="80"/><path d="M430.684,364.021c-9.941-14.435-24.157-25.664-41.278-29.333l-65.42-14.016L312,308.687V290.866a39.517,39.517,0,0,0,7.478-12.015l15.19-37.981a127.192,127.192,0,0,0,9.332-49.1,35.994,35.994,0,0,0,0-71.544V80a40.054,40.054,0,0,0-34.473-39.609A43.036,43.036,0,0,0,270.7,16H200a40,40,0,0,0-5.27,79.642A56.385,56.385,0,0,1,184,111.18V96H168v24.228a35.994,35.994,0,0,0,0,71.544c0,13.8.781,26.964,5.737,40.011,1.883,4.956,18.785,47.068,18.785,47.068,3.728,8.649,7.326,11.846,7.478,12.015v17.82l-11.986,11.986-65.421,14.016A64.01,64.01,0,0,0,72,397.27V496H88V397.27A47.956,47.956,0,0,1,90.166,383.1l31.688,38.026,12.292-10.244L98.191,367.732a48.242,48.242,0,0,1,27.755-17.4L177.4,339.309,167.1,359.9l-40.673,8.251,3.138,15.69,28.405-5.681-5.129,10.258A8,8,0,0,0,155.2,398.4l26.659,19.994-13.014,26.028a8,8,0,0,0,2.5,10.088l56,40c5.786,4.133,14.211-1.252,12.411-8.45L224.722,425.9l19.434-24.293L248,416.985V496h16V416.985l3.844-15.374L287.278,425.9s-14.972,59.885-15.039,60.155c-1.75,7,6.563,12.63,12.411,8.451l56-40a8,8,0,0,0,2.5-10.088l-13.014-26.028L356.8,398.4a8,8,0,0,0,2.355-9.978l-5.129-10.258,28.4,5.681,3.138-15.69-40.63-8.166L334.6,339.309l51.455,11.023a48.245,48.245,0,0,1,27.756,17.4l-35.955,43.146,12.292,10.244L421.834,383.1C423.5,388.167,424,400,424,400h16S441,379,430.684,364.021ZM344,160V136.4a20,20,0,0,1,0,39.2Zm-176,0v15.6a20,20,0,0,1,0-39.2ZM312,57.371A24.042,24.042,0,0,1,328,80v31.18A56.317,56.317,0,0,1,312,72Zm-16-7.987V56H279.59c-1.114-10.521-4.413-18.277-8.665-23.991A27.064,27.064,0,0,1,296,49.384ZM240,32c.071,0,.272,0,.56.02h.006c3.311.183,19.645,2.2,22.876,23.98H247.59c-1.114-10.527-4.416-18.285-8.671-24ZM177.379,64.024A24.005,24.005,0,0,1,200,32h8c.889,0,19.927.3,23.442,24H219.867c-5.527-5.632-14.153-8.28-20.99-7.974A24.2,24.2,0,0,0,177.379,64.024Zm16.834,13.5a7.954,7.954,0,0,1-2.2-5.913,8.14,8.14,0,0,1,7.6-7.6c.128,0,.259,0,.388,0,0,0-.2,13.338-.583,15.964A7.918,7.918,0,0,1,194.213,77.524ZM184,132l3.2-2.4A72.346,72.346,0,0,0,216,72h80a72.346,72.346,0,0,0,28.8,57.6L328,132v24.687l-3.768,3.768a115.782,115.782,0,0,0-23.175,33.288l-8.371-8.37A31.791,31.791,0,0,0,270.059,176H256V152H240v24.064a31.761,31.761,0,0,0-20.686,9.309l-9.15,9.149a115.482,115.482,0,0,0-9.568-15.06L184,157.334Zm10.055,107.6c-1.653-4.135-3.3-8.215-4.769-12.322-2.844-7.959-5.013-16.02-5.241-24.784C184.028,201.858,184,184,184,184l3.8,5.062a99.454,99.454,0,0,1,9.37,15.161l3.382,6.764c.06.12.12.237.182.351a1.121,1.121,0,0,0,.108.2c3.894,6.946,10.663,3.689,10.733,3.655a7.92,7.92,0,0,0,2.525-1.974l16.531-16.531A15.9,15.9,0,0,1,241.941,192h28.118a15.9,15.9,0,0,1,11.314,4.686l16.97,16.971a8,8,0,0,0,13.246-3.127A99.714,99.714,0,0,1,328,180.243s-.028,21.614-.045,22.248c-.285,11.082-3.761,21.484-7.838,31.675l-15.5,38.747a24.2,24.2,0,0,1-3.641,6.224A23.884,23.884,0,0,1,282.33,288H229.67a23.9,23.9,0,0,1-22.289-15.087Zm-7.843,205.865,12.943-25.885A8,8,0,0,0,196.8,409.6l-26.659-19.994,19.343-38.686,29.485,117.941Zm33.632-39.074L200.86,330.454l5.3-5.3L238.4,383.193Zm37.163-26.274a25.367,25.367,0,0,0-1.007,2.9,25.367,25.367,0,0,0-1.007-2.9L216,309.927v-8.309A40.2,40.2,0,0,0,229.665,304h52.67A40.2,40.2,0,0,0,296,301.618v8.309Zm16.593,3.078,32.243-58.037,5.3,5.3-18.984,75.935Zm68.259,6.413L315.2,409.6a8,8,0,0,0-2.355,9.978l12.943,25.885-32.757,23.4L322.516,350.92Z"/><circle cx="214" cy="154" r="14"/><circle cx="298" cy="154" r="14"/><rect x="208" y="112" width="96" height="16"/><path d="M281.573,223.844l-3.146-15.688c-.23.047-23.264,4.6-45.983,3.337l-.888,15.976c3.093.172,6.176.247,9.21.247A230.817,230.817,0,0,0,281.573,223.844Z"/><path d="M128,465.375a132.27,132.27,0,0,1-16.242-35.327L96.239,433.94c.337,1.351,8.3,32.385,31.761,57.3V496h16V432H128Z"/><path d="M384,465.375V432H368v64h16v-4.759c23.46-24.916,31.424-55.95,31.761-57.3l-15.519-3.892A132.27,132.27,0,0,1,384,465.375Z"/><rect x="184" y="480" width="16" height="16"/></g></svg>
