<svg xmlns="http://www.w3.org/2000/svg" viewBox="0 0 512 512" x="0px" y="0px"><title>Avatar icon</title><desc>Avatar icon for website, application, printing, document, poster design, etc.</desc><metadata><?xpacket begin="&#65279;" id="W5M0MpCehiHzreSzNTczkc9d"?><x:xmpmeta xmlns:x="adobe:ns:meta/" x:xmptk="Adobe XMP Core 5.6-c145 79.162955, 2018/05/10-01:07:16        "/><?xpacket end="w"?></metadata><g><path d="M436.9,362.351a56.226,56.226,0,0,0-21.906-11.819l-88.051-24.461L312,309V289.889l13.267-26.534a178.485,178.485,0,0,0,18.009-63.511,35.992,35.992,0,0,0,10.445-69.12l2.8-22.42c5.859-46.875-33.612-92.3-80.8-92.3H228.271A78.689,78.689,0,0,0,178.48,33.815l10.15,12.37A62.641,62.641,0,0,1,228.271,32H240V56h16V32h19.729c36.977,0,69.474,37.876,64.919,74.319L337.938,128h-7.851c-.513-2.943-.943-5.9-1.266-8.865l-15.906,1.73a156.291,156.291,0,0,0,3.759,21.019,30.882,30.882,0,0,1-12.964-9.759A32.326,32.326,0,0,1,297.359,106l1.956-7.353a29.077,29.077,0,0,0-49.539-27.12,27.854,27.854,0,0,0-48.823,6.531c-6.373,16.484-.527,40.745,6.6,58.691-9.8-7.856-19.263-21.169-23.967-35.282l-15.178,5.06A96.241,96.241,0,0,0,178.856,128h-6.61l-4.591-18.364a62.394,62.394,0,0,1,9.773-51.472l-13.02-9.3a78.365,78.365,0,0,0-12.275,64.652l4.485,17.942a35.991,35.991,0,0,0,12.106,68.385,178.485,178.485,0,0,0,18.009,63.511L200,289.889V309l-14.941,17.076L97.017,350.53A55.953,55.953,0,0,0,56,404.48V496H72V404.48a40.014,40.014,0,0,1,8.515-24.651l33.828,33.828,11.314-11.314-32.92-32.92a39.778,39.778,0,0,1,8.555-3.475l64.57-17.938L145.98,370.732a8.059,8.059,0,0,0,2.442,12.423l24.845,12.423-12.422,24.844a8,8,0,0,0,.371,7.818L200,490.3V496h32V480H216V432h16V416H216V396l19.161-14.371L248,432.985V496h16V432.985l12.839-51.356L296,396V496h16v-5.7l38.784-62.055a8,8,0,0,0,.371-7.818l-12.422-24.844,24.844-12.422a8.108,8.108,0,0,0,2.444-12.424L346.138,348.01l64.579,17.94a39.767,39.767,0,0,1,8.547,3.472l-32.921,32.921,11.314,11.314,33.827-33.827A40.007,40.007,0,0,1,440,404.48V416h16V404.48A56.038,56.038,0,0,0,436.9,362.351ZM264.228,366.1,256,399.016,247.772,366.1c-.02-.081-31.772-56.227-31.772-56.227v-3.09A39.944,39.944,0,0,0,235.777,312h40.446A39.944,39.944,0,0,0,296,306.786v3.09S264.4,365.392,264.228,366.1ZM360,164a20.037,20.037,0,0,1-16,19.6V144.4A20.037,20.037,0,0,1,360,164Zm-208,0a20.037,20.037,0,0,1,16-19.6v39.2A20.037,20.037,0,0,1,152,164Zm35.831,54.78,10.825-7.218-14.54-21.809C184.047,187.836,184,136,184,136v-.766a78.225,78.225,0,0,0,19.141,17.946,14,14,0,1,0,24.547,5.9,7.967,7.967,0,0,0,2.968-11.517c-3.635-5.453-9.221-17.275-12.893-30.346-2.738-9.745-3.918-18.354-3.5-25.144l2.153,6.458,15.178-5.06-5.862-17.589a11.386,11.386,0,0,1,12.343,7.627c1.55,4.648,2.642,11.585,8.868,12.422,6.341.85,9.12-5.667,12.06-9.965,1.681-2.457,3.186-4.733,5.875-6.221,1.169-.647,9.283-1.4,9.224-1.314l-8.754,13.133,13.314,8.874,5.6-8.4a13,13,0,0,1-.4,2.5l-2.025,7.609c-.043.161-.081.324-.114.487a48.3,48.3,0,0,0,9.419,39.384,47.608,47.608,0,0,0,5.686,6.044,14.017,14.017,0,1,0,14.166,8.734C318.167,160.333,327.338,160,328,160v21.334L305.6,211.2l12.8,9.6,7.281-9.708A162.068,162.068,0,0,1,310.956,256.2l-13.267,26.533A24.292,24.292,0,0,1,296,285.6V272H280v23.7c-1.236.194-16,.3-16,.3V264h8V248H240v16h8v32s-14.764-.11-16-.3V272H216v13.6a24.292,24.292,0,0,1-1.689-2.869L201.044,256.2A161.7,161.7,0,0,1,187.831,218.78Zm-.253,166.065-22.739-11.369L200,333.292V460.105l-22.838-36.541,13.993-27.986A8,8,0,0,0,187.578,384.845ZM216,376V342.124l13.55,23.713Zm66.45-10.163L296,342.124V376Zm41.972,19.008a8,8,0,0,0-3.577,10.733l13.993,27.986L312,460.105V333.292l35.161,40.184Z"/><rect x="440" y="432" width="16" height="64"/><path d="M136,424H120v34.806c-6.344-10.955-12.608-25.942-16.411-37.337L88.411,426.53c2.61,7.832,15.541,44.677,31.589,57.7V496h56V480H136Z"/><path d="M392,458.819V424H376v56H336v16h56V484.228c16.048-13.021,28.979-49.866,31.589-57.7l-15.178-5.06C404.612,432.867,398.349,447.861,392,458.819Z"/><rect x="240" y="160" width="16" height="40"/><path d="M228.281,224h3.912l-.637,11.469c3.092.172,6.175.247,9.208.247a230.948,230.948,0,0,0,40.809-3.872L280,224h3.717l13.625,20.438,13.312-8.876-16-24A8,8,0,0,0,288,208H264v10.293c-4.66.535-10.149,1.022-16,1.262V208H224a8,8,0,0,0-6.656,3.562l-16,24,13.312,8.876Z"/><path d="M312,88h16c0-47.451-39.6-48-40-48V56C288.98,56,312,56.363,312,88Z"/></g></svg>
