<svg xmlns="http://www.w3.org/2000/svg" xmlns:xlink="http://www.w3.org/1999/xlink" version="1.1" x="0px" y="0px" viewBox="0 0 64 64" style="enable-background:new 0 0 64 64;" xml:space="preserve"><g><path d="M11.1,33h25.42c0.55,0,1-0.45,1-1s-0.45-1-1-1H11.1c-0.55,0-1,0.45-1,1S10.55,33,11.1,33z"/><path d="M52.9,51H11.1c-0.55,0-1,0.45-1,1s0.45,1,1,1h41.8c0.55,0,1-0.45,1-1S53.45,51,52.9,51z"/><path d="M11.1,13h41.8c0.55,0,1-0.45,1-1s-0.45-1-1-1H11.1c-0.55,0-1,0.45-1,1S10.55,13,11.1,13z"/></g></svg>
