<svg xmlns:dc="http://purl.org/dc/elements/1.1/" xmlns:cc="http://creativecommons.org/ns#" xmlns:rdf="http://www.w3.org/1999/02/22-rdf-syntax-ns#" xmlns:svg="http://www.w3.org/2000/svg" xmlns="http://www.w3.org/2000/svg" xmlns:sodipodi="http://sodipodi.sourceforge.net/DTD/sodipodi-0.dtd" xmlns:inkscape="http://www.inkscape.org/namespaces/inkscape" version="1.1" x="0px" y="0px" viewBox="0 0 100 100"><g transform="translate(0,-952.36218)"><path style="text-indent:0;text-transform:none;direction:ltr;block-progression:tb;baseline-shift:baseline;color:#000000;enable-background:accumulate;" d="m 79.656155,979.36787 a 3.0003,3.0003 0 0 0 -1.78125,0.9063 c -1.17678,1.1768 -10.28125,10.5312 -19.53125,20.03123 -8.37782,8.6043 -15.48497,15.9131 -17.625,18.0938 l -18.90625,-14.4063 a 3.0003,3.0003 0 1 0 -3.625,4.7813 l 21,16 a 3.0003,3.0003 0 0 0 3.9375,-0.2813 c 1.17678,-1.1767 10.28125,-10.5 19.53125,-20 9.25,-9.50003 18.64553,-19.17673 19.46875,-20.00003 a 3.0003,3.0003 0 0 0 -2.46875,-5.125 z" fill="#000000" fill-opacity="1" stroke="none" marker="none" visibility="visible" display="inline" overflow="visible"/></g></svg>
