<svg xmlns="http://www.w3.org/2000/svg" xmlns:xlink="http://www.w3.org/1999/xlink" xml:space="preserve" version="1.1" style="shape-rendering:geometricPrecision;text-rendering:geometricPrecision;image-rendering:optimizeQuality;" viewBox="0 0 1.466 1.466" x="0px" y="0px" fill-rule="evenodd" clip-rule="evenodd"><defs><style type="text/css">

    .fil0 {fill:black;fill-rule:nonzero}

  </style></defs><g><path class="fil0" d="M1.333 0.919c0,-0.037 0.03,-0.066 0.067,-0.066 0.036,0 0.066,0.029 0.066,0.066l0 0.481c0,0.036 -0.03,0.066 -0.066,0.066l0 0 -1.333 0c-0.037,0 -0.067,-0.03 -0.067,-0.066l0 -1.333c0,-0.037 0.03,-0.067 0.067,-0.067l0.48 0c0.037,0 0.067,0.03 0.067,0.067 0,0.036 -0.03,0.066 -0.067,0.066l-0.414 0 0 1.2 1.2 0 0 -0.414zm-0.5 -0.261c-0.002,-0.001 -0.003,-0.003 -0.005,-0.004l0 0 -0.001 0 0 -0.001 -0.001 0 -0.001 -0.001 0 0 -0.001 -0.001 -0.001 -0.001 0 0 -0.001 -0.001 0 0 -0.002 -0.001 0 0 -0.001 -0.001 -0.001 -0.001 0 0 -0.001 -0.001 0 -0.001 -0.001 -0.001 0 0 -0.001 -0.001 -0.001 -0.001 0 0 0 0 -0.001 -0.001 0 -0.001 -0.001 -0.001 0 0c-0.001,-0.001 -0.002,-0.003 -0.003,-0.005l-0.001 -0.001 0 0 -0.001 -0.001 0 -0.001 0 -0.001 -0.001 0 0 -0.001 0 -0.001 -0.001 -0.001 0 0 0 -0.001 -0.001 -0.001 0 -0.001 0 0 -0.001 -0.001c-0.002,-0.006 -0.003,-0.012 -0.003,-0.019l0 -0.001 0 -0.001 0 -0.001 0 0 0 -0.356c0,-0.036 0.03,-0.066 0.066,-0.066 0.037,0 0.067,0.03 0.067,0.066l0 0.195 0.419 -0.419c0.026,-0.026 0.069,-0.026 0.095,0 0.026,0.026 0.026,0.068 0,0.094l-0.42 0.419 0.195 0c0.037,0 0.066,0.03 0.066,0.067 0,0.037 -0.029,0.066 -0.066,0.066l-0.356 0 0 0 -0.001 0 0 0 -0.002 0c-0.006,0 -0.013,-0.001 -0.019,-0.003l-0.001 -0.001 0 0 -0.001 0 -0.001 0 -0.001 -0.001 0 0 -0.001 0 -0.001 -0.001 -0.001 0 0 0 -0.001 -0.001 -0.001 0 0 -0.001 -0.001 0 -0.001 0z"/></g></svg>
