<svg xmlns="http://www.w3.org/2000/svg" xmlns:xlink="http://www.w3.org/1999/xlink" xml:space="preserve" version="1.1" style="shape-rendering:geometricPrecision;text-rendering:geometricPrecision;image-rendering:optimizeQuality;" viewBox="0 0 1.31 1.31" x="0px" y="0px" fill-rule="evenodd" clip-rule="evenodd"><defs><style type="text/css">

    .fil0 {fill:black;fill-rule:nonzero}

  </style></defs><g><path class="fil0" d="M1.191 0.821c0,-0.032 0.027,-0.059 0.06,-0.059 0.033,0 0.059,0.027 0.059,0.059l0 0.43c0,0.033 -0.026,0.059 -0.059,0.059l0 0 -1.191 0c-0.033,0 -0.06,-0.026 -0.06,-0.059l0 -1.191c0,-0.033 0.027,-0.06 0.06,-0.06l0.429 0c0.033,0 0.059,0.027 0.059,0.06 0,0.032 -0.026,0.059 -0.059,0.059l-0.37 0 0 1.072 1.072 0 0 -0.37zm0.089 -0.813c0.002,0.001 0.004,0.002 0.005,0.003l0 0 0.001 0.001 0 0 0.001 0 0.001 0.001 0 0 0.001 0.001 0.001 0 0 0.001 0.001 0 0 0 0.001 0.001 0 0 0.001 0.001 0.001 0.001 0 0.001 0.001 0.001 0 0 0.001 0.001 0 0 0.001 0.001 0.001 0.001 0 0 0 0 0.001 0.001 0 0 0 0.001 0 0c0.002,0.002 0.003,0.003 0.003,0.005l0.001 0.001 0 0 0.001 0.001 0 0 0 0.001 0 0.001 0.001 0 0 0.001 0 0.001 0.001 0 0 0.001 0 0.001 0.001 0 0 0.001 0 0.001c0.002,0.005 0.003,0.011 0.003,0.017l0 0.001 0 0 0 0.002 0 0 0 0.317c0,0.033 -0.026,0.06 -0.059,0.06 -0.033,0 -0.06,-0.027 -0.06,-0.06l0 -0.174 -0.375 0.375c-0.023,0.023 -0.061,0.023 -0.084,0 -0.023,-0.023 -0.023,-0.061 0,-0.084l0.375 -0.375 -0.174 0c-0.033,0 -0.059,-0.027 -0.059,-0.059 0,-0.033 0.026,-0.06 0.059,-0.06l0.318 0 0 0 0.001 0 0 0 0.002 0c0.006,0 0.011,0.001 0.017,0.003l0 0.001 0.001 0 0.001 0 0 0 0.001 0.001 0.001 0 0 0 0.001 0.001 0.001 0 0 0 0.001 0.001 0 0 0.001 0 0.001 0.001 0 0z"/></g></svg>
