<svg xmlns="http://www.w3.org/2000/svg" data-name="Layer 1" viewBox="0 0 100 100" x="0px" y="0px"><title>Noun_Project_20Icon_5px_grid</title><path d="M59.18,73.35L45,87.53c-9.52,9.53-24.63,10-33.58,1.06S2.94,64.53,12.47,55l16-16c9.4-9.39,24.22-10,33.21-1.41,0.07,0.06.14,0.12,0.21,0.19l0.06,0.06L62,38h0a7,7,0,0,1-10,9.67l0,0c-4.12-4.12-11-3.82-15.39.58l-15,15c-4.39,4.39-4.63,11.59-.51,15.71s11.32,3.89,15.71-.51l5.54-5.54a31.43,31.43,0,0,0,7.44,1.48A26.68,26.68,0,0,0,59.18,73.35ZM88.59,11.41C79.64,2.46,64.53,2.94,55,12.46L40.82,26.65a26.76,26.76,0,0,1,9.35-.94,31.31,31.31,0,0,1,7.43,1.48l5.55-5.54c4.39-4.39,11.59-4.63,15.71-.51s3.89,11.32-.5,15.71l-15,15C59,56.2,52.13,56.5,48,52.39l0,0A7,7,0,0,0,38,62h0l0.11,0.11,0.05,0.06c0.07,0.07.14,0.12,0.21,0.18,9,8.57,23.81,8,33.21-1.41l16-16C97.06,35.47,97.54,20.35,88.59,11.41Z"/></svg>
