<svg xmlns="http://www.w3.org/2000/svg" xmlns:xlink="http://www.w3.org/1999/xlink" version="1.1" x="0px" y="0px" viewBox="0 0 100 100" enable-background="new 0 0 100 100" xml:space="preserve"><path fill="white" d="M40.1,52l3.1,2.6L31.1,65.1c-2.2,1.9-5,2.9-7.9,2.9H15c-1.1,0-2-0.9-2-2s0.9-2,2-2h8.3c1.9,0,3.8-0.7,5.2-1.9L40.1,52z   M50.9,48L47.8,45.4L59.9,35c2.199-1.9,5-2.9,7.899-2.9H74v-7c0-1.628,1.926-2.627,3.4-1.4l9,9c0.8,0.8,0.8,2,0,2.8l-9,9  C75.752,45.734,74,44.464,74,43v-7h-6.3c-1.9,0-3.8,0.7-5.2,1.9L50.9,48z M78,38.2l4.2-4.2L78,29.8V38.2z M86.4,64.6  c0.8,0.801,0.8,2,0,2.801l-9,9C76.043,77.755,74,76.61,74,75v-7h-6.3c-2.9,0-5.7-1-7.9-2.9L28.5,37.9C27,36.6,25.2,36,23.3,36H15  c-1.1,0-2-0.9-2-2s0.9-2,2-2h8.3c2.9,0,5.7,1,7.9,2.9L62.6,62c1.5,1.3,3.301,1.9,5.2,1.9H74v-7c0-1.625,1.923-2.631,3.4-1.4  L86.4,64.6z M82.2,66L78,61.8v8.4L82.2,66z"/></svg>
