<svg xmlns="http://www.w3.org/2000/svg" viewBox="0 0 512 512" x="0px" y="0px"><title>Avatar icon</title><desc>Avatar icon for website, application, printing, document, poster design, etc.</desc><metadata><?xpacket begin="&#65279;" id="W5M0MpCehiHzreSzNTczkc9d"?><x:xmpmeta xmlns:x="adobe:ns:meta/" x:xmptk="Adobe XMP Core 5.6-c145 79.162955, 2018/05/10-01:07:16        "/><?xpacket end="w"?></metadata><g><path d="M371.124,324.383a54.939,54.939,0,0,0,8.943-55.754l-5.941-14.854A85.19,85.19,0,0,1,368,221.96V128A112,112,0,0,0,176.1,49.516l11.414,11.213A95.288,95.288,0,0,1,256,32q4.651,0,9.228.438c-26.936,7.506-64.985,23.877-87.614,58.886l13.438,8.686C216.625,60.444,266.889,47.517,288,43.724V57.541c-2.368.645-5.291,1.561-8.952,2.844A226.358,226.358,0,0,0,246.405,75C223.428,87.464,191.328,109.8,168.9,145.4l13.538,8.53c19.787-31.408,48.043-51.609,68.262-63.025A203.318,203.318,0,0,1,288,74.263V91.947l-116.73,85.6A8,8,0,0,0,168,184v8.446a98.371,98.371,0,0,0,6.032,34.018c.822,11.318-2.864,22.319-6.769,33.962-1.089,3.248-2.216,6.606-3.238,9.971-4,13.195-3.033,27.141,2.973,42.354a56.032,56.032,0,0,0-12.045,3.366,38.945,38.945,0,0,1-8.165-41.547l5.938-14.845A101.092,101.092,0,0,0,160,221.96V128a95.245,95.245,0,0,1,18.556-56.745l-12.9-9.467A111.143,111.143,0,0,0,144,128v93.96a85.188,85.188,0,0,1-6.128,31.819l-5.939,14.849a54.925,54.925,0,0,0,8.947,55.751A55.9,55.9,0,0,0,120,368V496h16V368a39.973,39.973,0,0,1,40-40h11.056l-18.211,36.422a8,8,0,0,0,3.577,10.733l25.8,12.9L192.41,405.47a8,8,0,0,0,1.036,7.118s56.047,80.056,56.069,80.086A8.252,8.252,0,0,0,256,496a8.154,8.154,0,0,0,6.55-3.413l56-80a8,8,0,0,0,1.036-7.118l-5.807-17.417,25.795-12.9a8,8,0,0,0,3.577-10.733L324.944,328H336a39.9,39.9,0,0,1,30.317,13.906l12.121-10.443A56.132,56.132,0,0,0,371.124,324.383ZM184,188.054,202.753,174.3A13.979,13.979,0,0,0,225.3,157.768l68.9-50.527L328,154.563v37.883a81.442,81.442,0,0,1-45.267,73.243,59.773,59.773,0,0,1-53.465,0A81.441,81.441,0,0,1,184,192.446Zm115.551,123.9A3.992,3.992,0,0,1,296,308V276.674c1.616-.953,3.188-1.959,4.735-2.993C303.763,280.494,306.827,293.5,299.551,311.955Zm-12.21,11.514L261.507,345a15.708,15.708,0,0,0-11.014,0l-25.834-21.528A19.967,19.967,0,0,0,232,308V284.087a75.557,75.557,0,0,0,48,0V308A19.964,19.964,0,0,0,287.341,323.469ZM216,276.674V308a3.99,3.99,0,0,1-3.591,3.958c-7.284-18.478-4.207-31.491-1.176-38.3C212.79,274.7,214.373,275.714,216,276.674ZM184.11,312c-6.528-13.867-8.1-26-4.774-36.956.954-3.143,1.994-6.245,3.1-9.529,1.635-4.876,3.288-9.816,4.646-14.879a96.976,96.976,0,0,0,11.4,12.849c-4.518,8.226-10.5,24.977-3.043,48.515Zm24.752,94.711,6.728-20.181a8,8,0,0,0-4.012-9.685l-24.845-12.423,16.316-32.631,32.158,112.555ZM256,458.879,222.825,342.768l17.423,14.519a16,16,0,1,0,31.5,0l17.423-14.519Zm69.267-94.457-24.845,12.423a8,8,0,0,0-4.012,9.685l6.728,20.181-26.345,37.635,32.158-112.555ZM327.849,312H316.525c7.45-23.513,1.487-40.253-3.029-48.489a97.034,97.034,0,0,0,11.4-12.834c1.355,5.048,3,9.975,4.635,14.838,1.1,3.284,2.143,6.386,3.1,9.529C335.948,286,334.377,298.133,327.849,312Zm29.2,4.116a56.025,56.025,0,0,0-12.083-3.37c6-15.211,6.974-29.155,2.971-42.349-1.022-3.365-2.149-6.723-3.238-9.971-3.891-11.6-7.562-22.563-6.776-33.837A98.355,98.355,0,0,0,344,192.446V152a8,8,0,0,0-1.49-4.65L304,93.436V44.821a96.781,96.781,0,0,1,40.278,45.341,121.234,121.234,0,0,0-23.521-21.827L311.9,81.657c.347.232,34.482,23.476,40.1,61v79.3a101.094,101.094,0,0,0,7.272,37.761l5.94,14.85a38.94,38.94,0,0,1-8.166,41.545Zm30.392,29.713A55.647,55.647,0,0,1,392,368V496H376V368a39.716,39.716,0,0,0-3.254-15.831ZM181.657,482.343A8,8,0,0,1,184,488v8H168v-4.832c-18.441-20.8-21-54.085-5.481-77.367l13.312,8.875C163.755,440.791,166.313,467,181.657,482.343ZM349.481,413.8c15.792,23.686,13.294,56.33-5.481,77.375V496H328v-8a8,8,0,0,1,2.343-5.657c15.6-15.6,18.1-41.25,5.826-59.667ZM216,480h16v16H216Zm68-314a14,14,0,1,1,14,14A14.015,14.015,0,0,1,284,166Zm-37.889,66H240V216h6.111a68.145,68.145,0,0,0,30.312-7.155l7.154,14.31A84.208,84.208,0,0,1,246.111,232Z"/></g></svg>
