<svg xmlns="http://www.w3.org/2000/svg" viewBox="0 0 512 512" x="0px" y="0px"><title>Avatar icon</title><desc>Avatar icon for website, application, printing, document, poster design, etc.</desc><metadata><?xpacket begin="&#65279;" id="W5M0MpCehiHzreSzNTczkc9d"?><x:xmpmeta xmlns:x="adobe:ns:meta/" x:xmptk="Adobe XMP Core 5.6-c145 79.162955, 2018/05/10-01:07:16        "/><?xpacket end="w"?></metadata><g><path d="M246.111,224H240V208h6.111a179.13,179.13,0,0,0,32.415-2.863l2.948,15.726A195.386,195.386,0,0,1,246.111,224ZM168,144V128H152v16ZM400,496h16V368H400Zm12.9-146.416-15.111,5.26a39.971,39.971,0,0,0-10.065-15.673l-20.2,55.563-15.038-5.468,28.147-77.4A55.834,55.834,0,0,0,384,292.725V259.473L335.476,386.848a8.094,8.094,0,0,1-1.819,2.809L264,459.314V496H248V459.314l-69.657-69.657a8.056,8.056,0,0,1-1.819-2.809L128,259.473v33.252a55.834,55.834,0,0,0,3.372,19.137l28.147,77.4-15.038,5.468-20.2-55.544A40.122,40.122,0,0,0,112,368V496H96V368a56.2,56.2,0,0,1,22.456-44.837l-2.121-5.832A71.792,71.792,0,0,1,112,292.725V145.136a34.563,34.563,0,0,1,7.354-21.263L147.38,88.2l12.581,9.885-28.026,35.67A18.489,18.489,0,0,0,128,145.136v26.019A45.811,45.811,0,0,1,158,160H354a45.811,45.811,0,0,1,30,11.155V145.136a18.484,18.484,0,0,0-3.935-11.376L307.318,41.172A23.862,23.862,0,0,0,288.447,32H264v96h96v16H184V128h64V32H223.553a23.864,23.864,0,0,0-18.872,9.173L170.255,84.986,157.674,75.1,192.1,31.287A39.763,39.763,0,0,1,223.553,16h64.894A39.766,39.766,0,0,1,319.9,31.286l72.747,92.588A34.558,34.558,0,0,1,400,145.136V292.725a71.792,71.792,0,0,1-4.335,24.606l-2.121,5.833A56.024,56.024,0,0,1,412.9,349.584ZM344,184a15.938,15.938,0,0,0,13.706-7.763C356.491,176.086,344,176,344,176ZM333.463,236.8c-2.346,33.639-6.113,56.7-35.5,75.205.6.358,19.292,0,19.292,0A71.429,71.429,0,0,0,344,256V200h-.293A97.619,97.619,0,0,1,333.463,236.8ZM212,328h-1.4l2.1,7.343A45.233,45.233,0,0,0,256,368a45.066,45.066,0,0,0,43.3-32.657L301.4,328H300a20.023,20.023,0,0,1-20-20V284.086A76.084,76.084,0,0,1,256,288c-1.881,0-23.931-1.128-24-3.9V308A20.023,20.023,0,0,1,212,328Zm4-33.253V276.662a97.616,97.616,0,0,1-18.065-13.769A65.6,65.6,0,0,0,216,294.747Zm98.259-31.96A98.178,98.178,0,0,1,296,276.67v16.618C306.442,285.061,311.471,275.774,314.259,262.787ZM184,192.45a81.906,81.906,0,0,0,45.266,73.234A60.775,60.775,0,0,0,256,272a60.037,60.037,0,0,0,26.729-6.313A81.43,81.43,0,0,0,328,192.45V176H307.794a13.99,13.99,0,0,1-19.588,0H223.794a13.99,13.99,0,0,1-19.588,0H184v16.45ZM168.3,200H168v56a71.429,71.429,0,0,0,26.746,56H211.4c-31.878-25.3-32.165-60.53-31.243-72.34A97.729,97.729,0,0,1,168.3,200Zm-14.006-23.763a16.1,16.1,0,0,0,2.4,3.082A15.92,15.92,0,0,0,168,184v-8S155.51,176.086,154.295,176.237ZM165.51,312.991a56.1,56.1,0,0,1,6.667-.853A87.24,87.24,0,0,1,152,256V195.715a31.9,31.9,0,0,1-12.54-13.274A29.957,29.957,0,0,0,128,206v8.529Zm174.855,15.25A40.6,40.6,0,0,0,336,328H318.035l-3.352,11.737A61.067,61.067,0,0,1,256,384a61.3,61.3,0,0,1-58.682-44.26L193.965,328H176a40.616,40.616,0,0,0-4.366.241l19.247,51.326L256,444.686l65.119-65.119ZM384,206a29.956,29.956,0,0,0-11.459-23.559A31.883,31.883,0,0,1,360,195.713V256a87.24,87.24,0,0,1-20.177,56.138,56.1,56.1,0,0,1,6.667.853L384,214.529ZM200,432a15.986,15.986,0,0,0-8,29.835V496h16V461.835A15.986,15.986,0,0,0,200,432Zm112,0a15.986,15.986,0,0,0-8,29.835V496h16V461.835A15.986,15.986,0,0,0,312,432Z"/></g></svg>
