<svg xmlns="http://www.w3.org/2000/svg" viewBox="0 0 512 512" x="0px" y="0px"><title>Avatar icon</title><desc>Avatar icon for website, application, printing, document, poster design, etc.</desc><metadata><?xpacket begin="&#65279;" id="W5M0MpCehiHzreSzNTczkc9d"?><x:xmpmeta xmlns:x="adobe:ns:meta/" x:xmptk="Adobe XMP Core 5.6-c145 79.162955, 2018/05/10-01:07:16        "/><?xpacket end="w"?></metadata><g><path d="M379.528,103.522A31.708,31.708,0,0,0,381.87,91.56c0-18.384-15.791-33.34-35.2-33.34-.358,0-.717.005-1.073.014,0-.15,0-.3,0-.454,0-18.384-15.79-33.34-35.2-33.34a36.262,36.262,0,0,0-23.674,8.638,36.179,36.179,0,0,0-61.452,0A36.262,36.262,0,0,0,201.6,24.44c-19.41,0-35.2,14.956-35.2,33.34,0,.152,0,.3,0,.454-.356-.009-.715-.014-1.073-.014a36.074,36.074,0,0,0-24.512,9.405l10.825,11.783A20.116,20.116,0,0,1,165.33,74.22,20.678,20.678,0,0,1,173.8,76a8,8,0,0,0,10.369-10.963A15.74,15.74,0,0,1,182.4,57.78c0-9.561,8.613-17.34,19.2-17.34,9.419,0,17.381,6.084,18.934,14.467a8,8,0,0,0,10.122,6.219l.683-.209a8,8,0,0,0,5.674-8.991,15.924,15.924,0,0,1-.213-2.6C236.8,39.774,245.413,32,256,32s19.2,7.774,19.2,17.33a15.924,15.924,0,0,1-.213,2.6,8,8,0,0,0,5.674,8.991l.683.209a8,8,0,0,0,10.122-6.219c1.553-8.383,9.515-14.467,18.934-14.467,10.587,0,19.2,7.779,19.2,17.34a15.74,15.74,0,0,1-1.766,7.256A8,8,0,0,0,338.2,76a20.675,20.675,0,0,1,8.467-1.779c10.587,0,19.2,7.778,19.2,17.34a16.37,16.37,0,0,1-4.755,11.393A8,8,0,0,0,366.3,116.5c9.927.7,17.7,8.289,17.7,17.28a16.942,16.942,0,0,1-8.378,14.306,8,8,0,0,0,0,13.607,16.4,16.4,0,0,1,0,28.614c-.1.063-.192.139-.29.206A32.008,32.008,0,0,0,344,152h-8c-9.117,0-15.73-2.408-19.657-7.159-7.188-8.7-4.52-23.158-4.5-23.272a8,8,0,0,0-12.166-8.3c-7.675,4.924-14.512,6.47-20.322,4.6-10.421-3.355-15.788-16.49-15.906-16.783a7.991,7.991,0,0,0-7.424-5.071h-.033a8.026,8.026,0,0,0-7.444,5.068c-.053.134-5.421,13.411-15.907,16.787-5.815,1.866-12.649.321-20.322-4.6a8.01,8.01,0,0,0-12.172,8.27c.028.145,2.7,14.608-4.492,23.3C191.73,149.592,185.117,152,176,152h-8a32.008,32.008,0,0,0-31.332,38.513c-.1-.067-.188-.143-.29-.206a16.4,16.4,0,0,1,0-28.614,8,8,0,0,0,0-13.607A16.942,16.942,0,0,1,128,133.78c0-8.991,7.775-16.581,17.7-17.28a8,8,0,0,0,5.183-13.547A16.37,16.37,0,0,1,146.13,91.56a15.917,15.917,0,0,1,.4-3.532l-15.595-3.57a31.766,31.766,0,0,0,1.54,19.064C120.366,108.852,112,120.511,112,133.78a32.162,32.162,0,0,0,7.946,21.11,32.014,32.014,0,0,0,0,42.22A32.162,32.162,0,0,0,112,218.22c0,13.269,8.366,24.928,20.472,30.258a31.708,31.708,0,0,0-2.342,11.962c0,18.384,15.791,33.34,35.2,33.34.358,0,.717,0,1.073-.014,0,.15,0,.3,0,.454,0,18.384,15.79,33.34,35.2,33.34a36.872,36.872,0,0,0,14.332-2.885A4,4,0,0,1,212,328H176a56.063,56.063,0,0,0-56,56V496h16V384a40.04,40.04,0,0,1,39.158-39.979l-6.92,69.2-5.72,8.58c-16.185,24.278-12.744,59.359,7.835,79.866l11.294-11.334c-15.1-15.05-17.712-41.812-5.817-59.657l6.826-10.238a8,8,0,0,0,1.3-3.642l7.28-72.8h10.343l7.666,34.5a47.891,47.891,0,0,0,93.5,0l7.666-34.5H320.76l7.28,72.8a8,8,0,0,0,1.3,3.642c4.945,7.417,6.37,9.554,6.829,10.236l0,0c12.277,18.417,9.772,44.068-5.827,59.667l11.314,11.314c20.886-20.886,24.251-55.218,7.825-79.856l-.007-.012-5.713-8.568-6.92-69.2a39.833,39.833,0,0,1,30.316,14.891l12.455-10.043A55.775,55.775,0,0,0,336,328H300a4,4,0,0,1-3.932-3.323,36.5,36.5,0,0,0,7.259,2.2,36.955,36.955,0,0,0,7.073.678c19.41,0,35.2-14.956,35.2-33.34,0-.152,0-.3,0-.454.356.009.715.014,1.073.014,19.409,0,35.2-14.956,35.2-33.34a31.708,31.708,0,0,0-2.342-11.962C391.634,243.148,400,231.489,400,218.22a32.162,32.162,0,0,0-7.946-21.11,32.014,32.014,0,0,0,0-42.22A32.162,32.162,0,0,0,400,133.78C400,120.511,391.634,108.852,379.528,103.522ZM344,168a16,16,0,0,1,0,32Zm-160-.514c10.293-1.389,18.369-5.595,24.074-12.553,5.623-6.86,7.718-15.128,8.34-22.062a34.037,34.037,0,0,0,21.261.189c8.123-2.654,14.149-8.2,18.325-13.5,4.176,5.307,10.2,10.851,18.325,13.5a34.03,34.03,0,0,0,21.261-.19c.622,6.935,2.717,15.2,8.34,22.063,5.7,6.958,13.781,11.164,24.074,12.553V208a72,72,0,0,1-144,0ZM168,168v32a16,16,0,0,1,0-32Zm48,137.655a19.574,19.574,0,0,1-10.394,5.524,20.929,20.929,0,0,1-4.006.381c-10.587,0-19.2-7.779-19.2-17.34a15.74,15.74,0,0,1,1.766-7.256A8,8,0,0,0,173.8,276a20.678,20.678,0,0,1-8.467,1.779c-10.587,0-19.2-7.778-19.2-17.34a16.37,16.37,0,0,1,4.755-11.393A8,8,0,0,0,145.7,235.5c-9.927-.7-17.7-8.289-17.7-17.28a16.942,16.942,0,0,1,8.378-14.306,7.989,7.989,0,0,0,3.494-4.666A32.03,32.03,0,0,0,168,216h.367A88.169,88.169,0,0,0,216,286.372Zm71.132,69.371a31.891,31.891,0,0,1-62.264,0l-7.086-31.886A20.029,20.029,0,0,0,232,324V292.673a88.228,88.228,0,0,0,48,0V324a20.029,20.029,0,0,0,14.218,19.14ZM366.3,235.5a8,8,0,0,0-5.183,13.547,16.37,16.37,0,0,1,4.755,11.393c0,9.562-8.613,17.34-19.2,17.34A20.675,20.675,0,0,1,338.2,276a8,8,0,0,0-10.369,10.963,15.74,15.74,0,0,1,1.766,7.256c0,9.561-8.613,17.34-19.2,17.34a20.989,20.989,0,0,1-4.027-.385A19.551,19.551,0,0,1,296,305.655V286.372A88.166,88.166,0,0,0,343.632,216H344a32.027,32.027,0,0,0,28.127-16.752,8,8,0,0,0,3.5,4.666A16.942,16.942,0,0,1,384,218.22C384,227.211,376.225,234.8,366.3,235.5ZM388.56,364.635A55.827,55.827,0,0,1,392,384V496H376V384a39.851,39.851,0,0,0-2.454-13.832ZM214,196a14,14,0,1,1,14-14A14.015,14.015,0,0,1,214,196Zm70-14a14,14,0,1,1,14,14A14.015,14.015,0,0,1,284,182Zm-52,42h16a8,8,0,0,0,16,0h16a24,24,0,0,1-48,0ZM200.41,418.53l15.18-5.06-.043-.122C215.83,414.109,222.854,432,256,432s40.17-17.891,40.453-18.652l-.043.122,15.18,5.06c-.4,1.2-10.344,29.47-55.59,29.47S200.812,419.733,200.41,418.53Z"/></g></svg>
