<svg xmlns="http://www.w3.org/2000/svg" viewBox="0 0 512 512" x="0px" y="0px"><title>Avatar icon</title><desc>Avatar icon for website, application, printing, document, poster design, etc.</desc><metadata><?xpacket begin="&#65279;" id="W5M0MpCehiHzreSzNTczkc9d"?><x:xmpmeta xmlns:x="adobe:ns:meta/" x:xmptk="Adobe XMP Core 5.6-c145 79.162955, 2018/05/10-01:07:16        "/><?xpacket end="w"?></metadata><g><path d="M384,290.812A71.711,71.711,0,0,1,415.85,321.9l-14.178,7.414a55.7,55.7,0,0,0-23.951-23.743c-10.691,10.6-22.822,21.886-38.12,29.58l-7.189-14.294C346.289,313.874,357.4,303.242,368,292.67V144A112,112,0,0,0,169.511,72.836L157.162,62.662A128,128,0,0,1,384,144Zm23,53.73a55.864,55.864,0,0,1,1,10.54v33.325S343.5,448,256,448c-91.5,0-152-59.593-152-59.593V355.081a55.554,55.554,0,0,1,30.278-49.5c10.69,10.6,22.819,21.886,38.121,29.582l7.189-14.3c-13.88-6.98-24.985-17.611-35.588-28.182V144a111.71,111.71,0,0,1,16.85-59.112l-13.582-8.457A127.693,127.693,0,0,0,128,144V290.806a71.651,71.651,0,0,0-40,64.275V392a8,8,0,0,0,2.685,5.979L96,402.7V496h16V415.849a239.145,239.145,0,0,0,136,48.006V496h16V463.855a239.145,239.145,0,0,0,136-48.006V496h16V402.7l5.315-4.725A8,8,0,0,0,424,392V355.082a71.885,71.885,0,0,0-1.293-13.568ZM216,496h16V480H216Zm-72,0h16V464H144Zm208,0h16V464H352ZM299.471,322.044a103.288,103.288,0,0,1-38.613,7.488c-20.55,0-34.714-6.086-35.764-6.551l3.239-7.314,3.214-7.326c1.6.693,39.559,16.657,80.326-10.964l.084.124a207.661,207.661,0,0,0,9-30.19,87.872,87.872,0,0,1-131.969-2.347c6.193,30,19.416,62.851,47.257,80.252l-8.48,13.568c-28.13-17.581-47.367-50.9-55.631-96.353A279.205,279.205,0,0,1,168,199.736V144a88,88,0,0,1,176,0v64c0,4.763-.683,117.032-60.031,150.946l-7.938-13.892C283.163,340.978,291.517,333.986,299.471,322.044ZM185.311,130.371a107.928,107.928,0,0,1,141.378,0,71.989,71.989,0,0,0-141.378,0ZM328,208V154.806l-.262-.327a91.87,91.87,0,0,0-143.476,0l-.262.328V208a72,72,0,0,0,144,0ZM214,160a14,14,0,1,0,14,14A14.015,14.015,0,0,0,214,160Zm84,0a14,14,0,1,0,14,14A14.015,14.015,0,0,0,298,160ZM179.97,416.994a195.761,195.761,0,0,0,150.333,0,226.668,226.668,0,0,0,67.1-43.1L386.594,362.1C348.126,397.362,302.669,416,255.136,416s-92.99-18.638-131.458-53.9L112.867,373.9A226.655,226.655,0,0,0,179.97,416.994Zm-46.16-91.635-11.62,11C161.6,377.993,207.573,400,255.136,400c48.334,0,94.922-22.663,134.727-65.54l-11.726-10.887C341.438,363.1,298.9,384,255.136,384,212.078,384,170.124,363.723,133.81,325.359ZM256,224a8.009,8.009,0,0,1-8-8H232a24,24,0,0,0,48,0H264A8.009,8.009,0,0,1,256,224Z"/></g></svg>
