<svg xmlns="http://www.w3.org/2000/svg" viewBox="0 0 512 512" x="0px" y="0px"><title>Avatar icon</title><desc>Avatar icon for website, application, printing, document, poster design, etc.</desc><metadata><?xpacket begin="&#65279;" id="W5M0MpCehiHzreSzNTczkc9d"?><x:xmpmeta xmlns:x="adobe:ns:meta/" x:xmptk="Adobe XMP Core 5.6-c145 79.162955, 2018/05/10-01:07:16        "/><?xpacket end="w"?></metadata><g><path d="M330.343,474.343A47.785,47.785,0,0,0,344,441.373c0-11.628-2.708-19.012-7.83-26.7l-6.826-10.238A8,8,0,0,1,328,400V384h16v8h32V368a39.935,39.935,0,0,0-2.274-13.334l15.086-5.332A55.9,55.9,0,0,1,392,368V496H376V408H350.878a64.894,64.894,0,0,1,5.19,55.31,61.99,61.99,0,0,1-5.329,10.884c-1.1,1.775-6.739,7.272-6.739,8.992V496H328V480A8,8,0,0,1,330.343,474.343ZM400,64a48.333,48.333,0,0,1-32.965,45.579A108.587,108.587,0,0,1,368,124v22.87A31.974,31.974,0,0,1,344,200h-.378A88,88,0,0,1,296,270.376V308a4,4,0,0,0,4,4h36a56.081,56.081,0,0,1,41.738,18.665l-11.922,10.67A40.062,40.062,0,0,0,336,328H309.414l-2.107,5.264a55.26,55.26,0,0,1-102.617-.009l-2.1-5.255H176a40.045,40.045,0,0,0-40,40v24h32v-8h16v16a8,8,0,0,1-1.344,4.438l-6.826,10.239A46.485,46.485,0,0,0,168,440.54v.833a46.326,46.326,0,0,0,13.657,32.97A8,8,0,0,1,184,480v16H168V483.186a64.02,64.02,0,0,1-14.8-54.865c.511-2.574,4.8-20.321,7.925-20.321H136v88H120V368a56.063,56.063,0,0,1,56-56h36a4,4,0,0,0,4-4V270.377A88,88,0,0,1,168.378,200H168a31.98,31.98,0,0,1-16-59.681V124a107.649,107.649,0,0,1,28.814-73.442l11.729,10.883A91.7,91.7,0,0,0,168,124v27.772a141.408,141.408,0,0,0,120-81.55V36.362a92.035,92.035,0,0,0-83.195,14.027L195.2,37.6a107.924,107.924,0,0,1,121.144-5.7A47.985,47.985,0,0,1,400,64ZM168,167.776c-2.656.136-5.321.224-8,.224a8,8,0,0,1-7.284-4.7A15.991,15.991,0,0,0,168,184ZM292.735,326.614A20.017,20.017,0,0,1,280,308V276.68a88.394,88.394,0,0,1-48,0V308a20.017,20.017,0,0,1-12.735,18.614l.282.7a39.259,39.259,0,0,0,72.9.005ZM328,147.9a107.221,107.221,0,0,1-35.4-52.777,157.621,157.621,0,0,1-70.042,59.825,14.02,14.02,0,1,1-22.145,7.728A156.566,156.566,0,0,1,184,166.135V192a72,72,0,1,0,144,0ZM352,136V124a92.078,92.078,0,0,0-48-80.777V71.336l1.315,7.893A91.413,91.413,0,0,0,338.728,136Zm8,32a16.019,16.019,0,0,0-16-16v32A16.019,16.019,0,0,0,360,168ZM384,64a31.99,31.99,0,0,0-54.579-22.662A108.267,108.267,0,0,1,363.694,93.79,32.233,32.233,0,0,0,384,64ZM309.657,381.657l-11.314-11.314C292.38,376.306,270.775,384,256,384s-36.38-7.694-42.343-13.657l-11.314,11.314C212.674,391.987,239.67,400,256,400S299.326,391.987,309.657,381.657ZM298,152a14,14,0,1,0,14,14A14.015,14.015,0,0,0,298,152Zm-42,64a8.009,8.009,0,0,1-8-8H232a24,24,0,0,0,48,0H264A8.009,8.009,0,0,1,256,216Zm-70.333-88.333,3.4,7.243a265.365,265.365,0,0,0,33.492-19.6C246.972,98.632,264.5,81,274.645,62.914l-13.956-7.828c-21.412,38.17-77.668,64.984-78.418,65.337l0,0Z"/></g></svg>
